<?xml version="1.0" encoding="UTF-8"?>
<svg id="Layer_1" data-name="Layer 1" xmlns="http://www.w3.org/2000/svg" viewBox="0 0 150.2 150">
  <defs>
    <style>
      .cls-1 {
        fill: none;
        stroke: #fff;
        stroke-linecap: round;
        stroke-linejoin: round;
        stroke-width: 4px;
      }
    </style>
  </defs>
  <g id="Lines">
    <line class="cls-1" x1="49.8" y1="81.8" x2="49.8" y2="103.6"/>
    <line class="cls-1" x1="49.8" y1="111.6" x2="49.8" y2="121.2"/>
    <line class="cls-1" x1="66.4" y1="81.8" x2="66.4" y2="93.1"/>
    <line class="cls-1" x1="66.4" y1="101.6" x2="66.4" y2="135.5"/>
    <line class="cls-1" x1="99.8" y1="130.8" x2="99.8" y2="120.6"/>
    <line class="cls-1" x1="99.8" y1="112.8" x2="99.8" y2="81.8"/>
    <line class="cls-1" x1="83.1" y1="81.8" x2="83.1" y2="97.7"/>
    <line class="cls-1" x1="83.1" y1="108.2" x2="83.1" y2="123.8"/>
    <path class="cls-1" d="m41.7,103.6h-21.2c-9.3-.3-16.6-8.1-16.3-17.4.3-8.9,7.4-16,16.3-16.3,1.3-12.9,12.2-22.7,25.2-22.7,2.7-20.6,21.6-35.1,42.3-32.4,15.4,2,27.9,13.2,31.6,28.3"/>
    <path class="cls-1" d="m96.8,69.9c4.6-13.2,19.1-20.1,32.3-15.4,13.2,4.6,20.1,19.1,15.4,32.3-3.6,10.1-13.1,16.9-23.9,16.9h-12.8"/>
  </g>
</svg>